<svg version="1.1" xmlns="http://www.w3.org/2000/svg" viewBox="0 0 1425 390" width="1425" height="390" filter="invert(93%) hue-rotate(180deg)">
  <!-- svg-source:excalidraw -->
  
  <defs>
    <style class="style-fonts">
      @font-face {
        font-family: "Virgil";
        src: url("https://excalidraw.com/Virgil.woff2");
      }
      @font-face {
        font-family: "Cascadia";
        src: url("https://excalidraw.com/Cascadia.woff2");
      }
      @font-face {
        font-family: "Assistant";
        src: url("https://excalidraw.com/Assistant-Regular.woff2");
      }
    </style>
    
  </defs>
  <rect x="0" y="0" width="1425" height="390" fill="#ffffff"></rect><g stroke-linecap="round"><g transform="translate(443 182) rotate(0 185.94387186684185 73.91754425376905)"><path d="M0 0 C61.02 6.3, 304.14 13.17, 366.12 37.81 C428.1 62.45, 370.93 129.5, 371.89 147.84 M0 0 C61.02 6.3, 304.14 13.17, 366.12 37.81 C428.1 62.45, 370.93 129.5, 371.89 147.84" stroke="#000000" stroke-width="1" fill="none"></path></g></g><mask></mask><g stroke-linecap="round" transform="translate(335 133) rotate(0 60 24.5)"><path d="M12.25 0 C43.82 0, 75.39 0, 107.75 0 M12.25 0 C42.93 0, 73.61 0, 107.75 0 M107.75 0 C115.92 0, 120 4.08, 120 12.25 M107.75 0 C115.92 0, 120 4.08, 120 12.25 M120 12.25 C120 18.14, 120 24.02, 120 36.75 M120 12.25 C120 17.53, 120 22.81, 120 36.75 M120 36.75 C120 44.92, 115.92 49, 107.75 49 M120 36.75 C120 44.92, 115.92 49, 107.75 49 M107.75 49 C71.62 49, 35.48 49, 12.25 49 M107.75 49 C87.06 49, 66.37 49, 12.25 49 M12.25 49 C4.08 49, 0 44.92, 0 36.75 M12.25 49 C4.08 49, 0 44.92, 0 36.75 M0 36.75 C0 28.58, 0 20.42, 0 12.25 M0 36.75 C0 28.02, 0 19.3, 0 12.25 M0 12.25 C0 4.08, 4.08 0, 12.25 0 M0 12.25 C0 4.08, 4.08 0, 12.25 0" stroke="#000000" stroke-width="1" fill="none"></path></g><g transform="translate(346.45000076293945 145) rotate(0 48.54999923706055 12.5)"><text x="48.54999923706055" y="0" font-family="Virgil, Segoe UI Emoji" font-size="20px" fill="#000000" text-anchor="middle" style="white-space: pre;" direction="ltr" dominant-baseline="text-before-edge">fonctions/</text></g><g stroke-linecap="round" transform="translate(329 331) rotate(0 96.5 24.5)"><path d="M12.25 0 C78.13 0, 144.02 0, 180.75 0 M12.25 0 C61.47 0, 110.68 0, 180.75 0 M180.75 0 C188.92 0, 193 4.08, 193 12.25 M180.75 0 C188.92 0, 193 4.08, 193 12.25 M193 12.25 C193 19.63, 193 27.01, 193 36.75 M193 12.25 C193 21.81, 193 31.37, 193 36.75 M193 36.75 C193 44.92, 188.92 49, 180.75 49 M193 36.75 C193 44.92, 188.92 49, 180.75 49 M180.75 49 C143.52 49, 106.29 49, 12.25 49 M180.75 49 C140.41 49, 100.07 49, 12.25 49 M12.25 49 C4.08 49, 0 44.92, 0 36.75 M12.25 49 C4.08 49, 0 44.92, 0 36.75 M0 36.75 C0 28.09, 0 19.42, 0 12.25 M0 36.75 C0 27.09, 0 17.43, 0 12.25 M0 12.25 C0 4.08, 4.08 0, 12.25 0 M0 12.25 C0 4.08, 4.08 0, 12.25 0" stroke="#000000" stroke-width="1" fill="none"></path></g><g transform="translate(340.56666564941406 343) rotate(0 84.93333435058594 12.5)"><text x="84.93333435058594" y="0" font-family="Virgil, Segoe UI Emoji" font-size="20px" fill="#000000" text-anchor="middle" style="white-space: pre;" direction="ltr" dominant-baseline="text-before-edge">searchQuestion.js</text></g><g stroke-linecap="round" transform="translate(211 233) rotate(0 80 24.5)"><path d="M12.25 0 C57.54 0, 102.83 0, 147.75 0 M12.25 0 C62.67 0, 113.08 0, 147.75 0 M147.75 0 C155.92 0, 160 4.08, 160 12.25 M147.75 0 C155.92 0, 160 4.08, 160 12.25 M160 12.25 C160 21.49, 160 30.73, 160 36.75 M160 12.25 C160 17.33, 160 22.42, 160 36.75 M160 36.75 C160 44.92, 155.92 49, 147.75 49 M160 36.75 C160 44.92, 155.92 49, 147.75 49 M147.75 49 C106.47 49, 65.19 49, 12.25 49 M147.75 49 C101.79 49, 55.83 49, 12.25 49 M12.25 49 C4.08 49, 0 44.92, 0 36.75 M12.25 49 C4.08 49, 0 44.92, 0 36.75 M0 36.75 C0 28.97, 0 21.2, 0 12.25 M0 36.75 C0 27.57, 0 18.4, 0 12.25 M0 12.25 C0 4.08, 4.08 0, 12.25 0 M0 12.25 C0 4.08, 4.08 0, 12.25 0" stroke="#000000" stroke-width="1" fill="none"></path></g><g transform="translate(221.0999984741211 245) rotate(0 69.9000015258789 12.5)"><text x="69.9000015258789" y="0" font-family="Virgil, Segoe UI Emoji" font-size="20px" fill="#000000" text-anchor="middle" style="white-space: pre;" direction="ltr" dominant-baseline="text-before-edge">addComment.js</text></g><g stroke-linecap="round" transform="translate(386 234) rotate(0 80 24.5)"><path d="M12.25 0 C52.28 0, 92.31 0, 147.75 0 M12.25 0 C45.04 0, 77.83 0, 147.75 0 M147.75 0 C155.92 0, 160 4.08, 160 12.25 M147.75 0 C155.92 0, 160 4.08, 160 12.25 M160 12.25 C160 19.04, 160 25.83, 160 36.75 M160 12.25 C160 17.21, 160 22.18, 160 36.75 M160 36.75 C160 44.92, 155.92 49, 147.75 49 M160 36.75 C160 44.92, 155.92 49, 147.75 49 M147.75 49 C110.92 49, 74.09 49, 12.25 49 M147.75 49 C118.31 49, 88.86 49, 12.25 49 M12.25 49 C4.08 49, 0 44.92, 0 36.75 M12.25 49 C4.08 49, 0 44.92, 0 36.75 M0 36.75 C0 28.15, 0 19.54, 0 12.25 M0 36.75 C0 29.48, 0 22.21, 0 12.25 M0 12.25 C0 4.08, 4.08 0, 12.25 0 M0 12.25 C0 4.08, 4.08 0, 12.25 0" stroke="#000000" stroke-width="1" fill="none"></path></g><g transform="translate(394.8499984741211 246) rotate(0 71.1500015258789 12.5)"><text x="71.1500015258789" y="0" font-family="Virgil, Segoe UI Emoji" font-size="20px" fill="#000000" text-anchor="middle" style="white-space: pre;" direction="ltr" dominant-baseline="text-before-edge">addQuestion.js</text></g><g stroke-linecap="round" transform="translate(724 330) rotate(0 66 24.5)"><path d="M12.25 0 C39.56 0, 66.87 0, 119.75 0 M12.25 0 C55.2 0, 98.14 0, 119.75 0 M119.75 0 C127.92 0, 132 4.08, 132 12.25 M119.75 0 C127.92 0, 132 4.08, 132 12.25 M132 12.25 C132 20.7, 132 29.15, 132 36.75 M132 12.25 C132 19.51, 132 26.78, 132 36.75 M132 36.75 C132 44.92, 127.92 49, 119.75 49 M132 36.75 C132 44.92, 127.92 49, 119.75 49 M119.75 49 C79.01 49, 38.28 49, 12.25 49 M119.75 49 C90.69 49, 61.62 49, 12.25 49 M12.25 49 C4.08 49, 0 44.92, 0 36.75 M12.25 49 C4.08 49, 0 44.92, 0 36.75 M0 36.75 C0 27.07, 0 17.39, 0 12.25 M0 36.75 C0 27.04, 0 17.33, 0 12.25 M0 12.25 C0 4.08, 4.08 0, 12.25 0 M0 12.25 C0 4.08, 4.08 0, 12.25 0" stroke="#000000" stroke-width="1" fill="none"></path></g><g transform="translate(737.6333351135254 342) rotate(0 52.36666488647461 12.5)"><text x="52.36666488647461" y="0" font-family="Virgil, Segoe UI Emoji" font-size="20px" fill="#000000" text-anchor="middle" style="white-space: pre;" direction="ltr" dominant-baseline="text-before-edge">visualise.js</text></g><g stroke-linecap="round" transform="translate(537 331) rotate(0 86.5 24.5)"><path d="M12.25 0 C70.78 0, 129.31 0, 160.75 0 M12.25 0 C65.34 0, 118.44 0, 160.75 0 M160.75 0 C168.92 0, 173 4.08, 173 12.25 M160.75 0 C168.92 0, 173 4.08, 173 12.25 M173 12.25 C173 18.92, 173 25.6, 173 36.75 M173 12.25 C173 21.46, 173 30.67, 173 36.75 M173 36.75 C173 44.92, 168.92 49, 160.75 49 M173 36.75 C173 44.92, 168.92 49, 160.75 49 M160.75 49 C120.42 49, 80.1 49, 12.25 49 M160.75 49 C106.98 49, 53.22 49, 12.25 49 M12.25 49 C4.08 49, 0 44.92, 0 36.75 M12.25 49 C4.08 49, 0 44.92, 0 36.75 M0 36.75 C0 30.75, 0 24.76, 0 12.25 M0 36.75 C0 30.73, 0 24.72, 0 12.25 M0 12.25 C0 4.08, 4.08 0, 12.25 0 M0 12.25 C0 4.08, 4.08 0, 12.25 0" stroke="#000000" stroke-width="1" fill="none"></path></g><g transform="translate(551.75 343) rotate(0 71.75 12.5)"><text x="71.75" y="0" font-family="Virgil, Segoe UI Emoji" font-size="20px" fill="#000000" text-anchor="middle" style="white-space: pre;" direction="ltr" dominant-baseline="text-before-edge">setCategory.js</text></g><g stroke-linecap="round" transform="translate(10 329) rotate(0 60 24.5)"><path d="M12.25 0 C50 0, 87.75 0, 107.75 0 M12.25 0 C46.38 0, 80.52 0, 107.75 0 M107.75 0 C115.92 0, 120 4.08, 120 12.25 M107.75 0 C115.92 0, 120 4.08, 120 12.25 M120 12.25 C120 17.53, 120 22.82, 120 36.75 M120 12.25 C120 21.62, 120 30.98, 120 36.75 M120 36.75 C120 44.92, 115.92 49, 107.75 49 M120 36.75 C120 44.92, 115.92 49, 107.75 49 M107.75 49 C84 49, 60.24 49, 12.25 49 M107.75 49 C78.12 49, 48.48 49, 12.25 49 M12.25 49 C4.08 49, 0 44.92, 0 36.75 M12.25 49 C4.08 49, 0 44.92, 0 36.75 M0 36.75 C0 27.53, 0 18.32, 0 12.25 M0 36.75 C0 29.74, 0 22.73, 0 12.25 M0 12.25 C0 4.08, 4.08 0, 12.25 0 M0 12.25 C0 4.08, 4.08 0, 12.25 0" stroke="#000000" stroke-width="1" fill="none"></path></g><g transform="translate(25.983333587646484 341) rotate(0 44.016666412353516 12.5)"><text x="44.016666412353516" y="0" font-family="Virgil, Segoe UI Emoji" font-size="20px" fill="#000000" text-anchor="middle" style="white-space: pre;" direction="ltr" dominant-baseline="text-before-edge">create.js</text></g><g stroke-linecap="round" transform="translate(144 329) rotate(0 85 24.5)"><path d="M12.25 0 C49.36 0, 86.47 0, 157.75 0 M12.25 0 C46.89 0, 81.53 0, 157.75 0 M157.75 0 C165.92 0, 170 4.08, 170 12.25 M157.75 0 C165.92 0, 170 4.08, 170 12.25 M170 12.25 C170 17.98, 170 23.7, 170 36.75 M170 12.25 C170 20.51, 170 28.78, 170 36.75 M170 36.75 C170 44.92, 165.92 49, 157.75 49 M170 36.75 C170 44.92, 165.92 49, 157.75 49 M157.75 49 C104.75 49, 51.74 49, 12.25 49 M157.75 49 C116.79 49, 75.83 49, 12.25 49 M12.25 49 C4.08 49, 0 44.92, 0 36.75 M12.25 49 C4.08 49, 0 44.92, 0 36.75 M0 36.75 C0 31.41, 0 26.07, 0 12.25 M0 36.75 C0 27.08, 0 17.41, 0 12.25 M0 12.25 C0 4.08, 4.08 0, 12.25 0 M0 12.25 C0 4.08, 4.08 0, 12.25 0" stroke="#000000" stroke-width="1" fill="none"></path></g><g transform="translate(159.6500015258789 341) rotate(0 69.3499984741211 12.5)"><text x="69.3499984741211" y="0" font-family="Virgil, Segoe UI Emoji" font-size="20px" fill="#000000" text-anchor="middle" style="white-space: pre;" direction="ltr" dominant-baseline="text-before-edge">profileChart.js</text></g><g stroke-linecap="round" transform="translate(75 233) rotate(0 60 24.5)"><path d="M12.25 0 C48.38 0, 84.51 0, 107.75 0 M12.25 0 C49.22 0, 86.18 0, 107.75 0 M107.75 0 C115.92 0, 120 4.08, 120 12.25 M107.75 0 C115.92 0, 120 4.08, 120 12.25 M120 12.25 C120 21.82, 120 31.39, 120 36.75 M120 12.25 C120 19.77, 120 27.29, 120 36.75 M120 36.75 C120 44.92, 115.92 49, 107.75 49 M120 36.75 C120 44.92, 115.92 49, 107.75 49 M107.75 49 C87.5 49, 67.26 49, 12.25 49 M107.75 49 C78.9 49, 50.04 49, 12.25 49 M12.25 49 C4.08 49, 0 44.92, 0 36.75 M12.25 49 C4.08 49, 0 44.92, 0 36.75 M0 36.75 C0 28.46, 0 20.16, 0 12.25 M0 36.75 C0 27.64, 0 18.53, 0 12.25 M0 12.25 C0 4.08, 4.08 0, 12.25 0 M0 12.25 C0 4.08, 4.08 0, 12.25 0" stroke="#000000" stroke-width="1" fill="none"></path></g><g transform="translate(95.29999923706055 245) rotate(0 39.70000076293945 12.5)"><text x="39.70000076293945" y="0" font-family="Virgil, Segoe UI Emoji" font-size="20px" fill="#000000" text-anchor="middle" style="white-space: pre;" direction="ltr" dominant-baseline="text-before-edge">VCard.js</text></g><g stroke-linecap="round" transform="translate(576 15) rotate(0 60 24.5)"><path d="M12.25 0 C42.74 0, 73.24 0, 107.75 0 M12.25 0 C48.8 0, 85.35 0, 107.75 0 M107.75 0 C115.92 0, 120 4.08, 120 12.25 M107.75 0 C115.92 0, 120 4.08, 120 12.25 M120 12.25 C120 20.45, 120 28.66, 120 36.75 M120 12.25 C120 21.45, 120 30.65, 120 36.75 M120 36.75 C120 44.92, 115.92 49, 107.75 49 M120 36.75 C120 44.92, 115.92 49, 107.75 49 M107.75 49 C70.65 49, 33.55 49, 12.25 49 M107.75 49 C76.09 49, 44.42 49, 12.25 49 M12.25 49 C4.08 49, 0 44.92, 0 36.75 M12.25 49 C4.08 49, 0 44.92, 0 36.75 M0 36.75 C0 29.24, 0 21.72, 0 12.25 M0 36.75 C0 28.46, 0 20.17, 0 12.25 M0 12.25 C0 4.08, 4.08 0, 12.25 0 M0 12.25 C0 4.08, 4.08 0, 12.25 0" stroke="#000000" stroke-width="1" fill="none"></path></g><g transform="translate(616.25 27) rotate(0 19.75 12.5)"><text x="19.75" y="0" font-family="Virgil, Segoe UI Emoji" font-size="20px" fill="#000000" text-anchor="middle" style="white-space: pre;" direction="ltr" dominant-baseline="text-before-edge">src/</text></g><g stroke-linecap="round" transform="translate(806 135) rotate(0 72.5 22)"><path d="M11 0 C48.75 0, 86.5 0, 134 0 M11 0 C53.69 0, 96.37 0, 134 0 M134 0 C141.33 0, 145 3.67, 145 11 M134 0 C141.33 0, 145 3.67, 145 11 M145 11 C145 19.06, 145 27.11, 145 33 M145 11 C145 16.91, 145 22.81, 145 33 M145 33 C145 40.33, 141.33 44, 134 44 M145 33 C145 40.33, 141.33 44, 134 44 M134 44 C106.11 44, 78.22 44, 11 44 M134 44 C92.22 44, 50.44 44, 11 44 M11 44 C3.67 44, 0 40.33, 0 33 M11 44 C3.67 44, 0 40.33, 0 33 M0 33 C0 26.67, 0 20.34, 0 11 M0 33 C0 26.66, 0 20.32, 0 11 M0 11 C0 3.67, 3.67 0, 11 0 M0 11 C0 3.67, 3.67 0, 11 0" stroke="#000000" stroke-width="1" fill="none"></path></g><g transform="translate(820.0499992370605 144.5) rotate(0 58.45000076293945 12.5)"><text x="58.45000076293945" y="0" font-family="Virgil, Segoe UI Emoji" font-size="20px" fill="#000000" text-anchor="middle" style="white-space: pre;" direction="ltr" dominant-baseline="text-before-edge">caporalCli.js</text></g><g stroke-linecap="round" transform="translate(482 133) rotate(0 60 24.5)"><path d="M12.25 0 C46.71 0, 81.18 0, 107.75 0 M12.25 0 C41.17 0, 70.09 0, 107.75 0 M107.75 0 C115.92 0, 120 4.08, 120 12.25 M107.75 0 C115.92 0, 120 4.08, 120 12.25 M120 12.25 C120 21.51, 120 30.78, 120 36.75 M120 12.25 C120 21.77, 120 31.3, 120 36.75 M120 36.75 C120 44.92, 115.92 49, 107.75 49 M120 36.75 C120 44.92, 115.92 49, 107.75 49 M107.75 49 C86.5 49, 65.25 49, 12.25 49 M107.75 49 C70.77 49, 33.8 49, 12.25 49 M12.25 49 C4.08 49, 0 44.92, 0 36.75 M12.25 49 C4.08 49, 0 44.92, 0 36.75 M0 36.75 C0 28.48, 0 20.21, 0 12.25 M0 36.75 C0 29.56, 0 22.37, 0 12.25 M0 12.25 C0 4.08, 4.08 0, 12.25 0 M0 12.25 C0 4.08, 4.08 0, 12.25 0" stroke="#000000" stroke-width="1" fill="none"></path></g><g transform="translate(509.9166679382324 145) rotate(0 32.08333206176758 12.5)"><text x="32.08333206176758" y="0" font-family="Virgil, Segoe UI Emoji" font-size="20px" fill="#000000" text-anchor="middle" style="white-space: pre;" direction="ltr" dominant-baseline="text-before-edge">Quiz.js</text></g><g stroke-linecap="round" transform="translate(629 134) rotate(0 76.5 23)"><path d="M11.5 0 C38.21 0, 64.92 0, 141.5 0 M11.5 0 C56.55 0, 101.59 0, 141.5 0 M141.5 0 C149.17 0, 153 3.83, 153 11.5 M141.5 0 C149.17 0, 153 3.83, 153 11.5 M153 11.5 C153 19.97, 153 28.44, 153 34.5 M153 11.5 C153 17.45, 153 23.41, 153 34.5 M153 34.5 C153 42.17, 149.17 46, 141.5 46 M153 34.5 C153 42.17, 149.17 46, 141.5 46 M141.5 46 C111.75 46, 82.01 46, 11.5 46 M141.5 46 C113.77 46, 86.04 46, 11.5 46 M11.5 46 C3.83 46, 0 42.17, 0 34.5 M11.5 46 C3.83 46, 0 42.17, 0 34.5 M0 34.5 C0 25.35, 0 16.2, 0 11.5 M0 34.5 C0 28.87, 0 23.24, 0 11.5 M0 11.5 C0 3.83, 3.83 0, 11.5 0 M0 11.5 C0 3.83, 3.83 0, 11.5 0" stroke="#000000" stroke-width="1" fill="none"></path></g><g transform="translate(640.6833343505859 144.5) rotate(0 64.81666564941406 12.5)"><text x="64.81666564941406" y="0" font-family="Virgil, Segoe UI Emoji" font-size="20px" fill="#000000" text-anchor="middle" style="white-space: pre;" direction="ltr" dominant-baseline="text-before-edge">GiftParser.js</text></g><g stroke-linecap="round" transform="translate(1161 10) rotate(0 60 24.5)"><path d="M12.25 0 C31.88 0, 51.51 0, 107.75 0 M12.25 0 C42.1 0, 71.95 0, 107.75 0 M107.75 0 C115.92 0, 120 4.08, 120 12.25 M107.75 0 C115.92 0, 120 4.08, 120 12.25 M120 12.25 C120 18.24, 120 24.23, 120 36.75 M120 12.25 C120 20.77, 120 29.29, 120 36.75 M120 36.75 C120 44.92, 115.92 49, 107.75 49 M120 36.75 C120 44.92, 115.92 49, 107.75 49 M107.75 49 C73.04 49, 38.34 49, 12.25 49 M107.75 49 C75.7 49, 43.64 49, 12.25 49 M12.25 49 C4.08 49, 0 44.92, 0 36.75 M12.25 49 C4.08 49, 0 44.92, 0 36.75 M0 36.75 C0 29.99, 0 23.22, 0 12.25 M0 36.75 C0 29.98, 0 23.21, 0 12.25 M0 12.25 C0 4.08, 4.08 0, 12.25 0 M0 12.25 C0 4.08, 4.08 0, 12.25 0" stroke="#000000" stroke-width="1" fill="none"></path></g><g transform="translate(1195.1499996185303 22) rotate(0 25.850000381469727 12.5)"><text x="25.850000381469727" y="0" font-family="Virgil, Segoe UI Emoji" font-size="20px" fill="#000000" text-anchor="middle" style="white-space: pre;" direction="ltr" dominant-baseline="text-before-edge">spec/</text></g><g stroke-linecap="round" transform="translate(1273 248) rotate(0 71 21.5)"><path d="M10.75 0 C35.99 0, 61.22 0, 131.25 0 M10.75 0 C39.23 0, 67.7 0, 131.25 0 M131.25 0 C138.42 0, 142 3.58, 142 10.75 M131.25 0 C138.42 0, 142 3.58, 142 10.75 M142 10.75 C142 18.96, 142 27.18, 142 32.25 M142 10.75 C142 17.11, 142 23.48, 142 32.25 M142 32.25 C142 39.42, 138.42 43, 131.25 43 M142 32.25 C142 39.42, 138.42 43, 131.25 43 M131.25 43 C93.98 43, 56.7 43, 10.75 43 M131.25 43 C97.83 43, 64.42 43, 10.75 43 M10.75 43 C3.58 43, 0 39.42, 0 32.25 M10.75 43 C3.58 43, 0 39.42, 0 32.25 M0 32.25 C0 25.01, 0 17.77, 0 10.75 M0 32.25 C0 27.43, 0 22.61, 0 10.75 M0 10.75 C0 3.58, 3.58 0, 10.75 0 M0 10.75 C0 3.58, 3.58 0, 10.75 0" stroke="#000000" stroke-width="1" fill="none"></path></g><g transform="translate(1288.316665649414 257) rotate(0 55.68333435058594 12.5)"><text x="55.68333435058594" y="0" font-family="Virgil, Segoe UI Emoji" font-size="20px" fill="#000000" text-anchor="middle" style="white-space: pre;" direction="ltr" dominant-baseline="text-before-edge">jasmine.json</text></g><g stroke-linecap="round" transform="translate(1277 135) rotate(0 60 24.5)"><path d="M12.25 0 C31.35 0, 50.45 0, 107.75 0 M12.25 0 C47.02 0, 81.79 0, 107.75 0 M107.75 0 C115.92 0, 120 4.08, 120 12.25 M107.75 0 C115.92 0, 120 4.08, 120 12.25 M120 12.25 C120 19.88, 120 27.5, 120 36.75 M120 12.25 C120 17.31, 120 22.36, 120 36.75 M120 36.75 C120 44.92, 115.92 49, 107.75 49 M120 36.75 C120 44.92, 115.92 49, 107.75 49 M107.75 49 C85.49 49, 63.23 49, 12.25 49 M107.75 49 C83.23 49, 58.71 49, 12.25 49 M12.25 49 C4.08 49, 0 44.92, 0 36.75 M12.25 49 C4.08 49, 0 44.92, 0 36.75 M0 36.75 C0 31.36, 0 25.98, 0 12.25 M0 36.75 C0 28.8, 0 20.84, 0 12.25 M0 12.25 C0 4.08, 4.08 0, 12.25 0 M0 12.25 C0 4.08, 4.08 0, 12.25 0" stroke="#000000" stroke-width="1" fill="none"></path></g><g transform="translate(1295.533332824707 147) rotate(0 41.46666717529297 12.5)"><text x="41.46666717529297" y="0" font-family="Virgil, Segoe UI Emoji" font-size="20px" fill="#000000" text-anchor="middle" style="white-space: pre;" direction="ltr" dominant-baseline="text-before-edge">support/</text></g><g stroke-linecap="round" transform="translate(980 133) rotate(0 135 25)"><path d="M12.5 0 C107.93 0, 203.36 0, 257.5 0 M12.5 0 C88.47 0, 164.43 0, 257.5 0 M257.5 0 C265.83 0, 270 4.17, 270 12.5 M257.5 0 C265.83 0, 270 4.17, 270 12.5 M270 12.5 C270 21.56, 270 30.63, 270 37.5 M270 12.5 C270 21.53, 270 30.55, 270 37.5 M270 37.5 C270 45.83, 265.83 50, 257.5 50 M270 37.5 C270 45.83, 265.83 50, 257.5 50 M257.5 50 C193.09 50, 128.68 50, 12.5 50 M257.5 50 C174.49 50, 91.48 50, 12.5 50 M12.5 50 C4.17 50, 0 45.83, 0 37.5 M12.5 50 C4.17 50, 0 45.83, 0 37.5 M0 37.5 C0 30.21, 0 22.93, 0 12.5 M0 37.5 C0 30.94, 0 24.38, 0 12.5 M0 12.5 C0 4.17, 4.17 0, 12.5 0 M0 12.5 C0 4.17, 4.17 0, 12.5 0" stroke="#000000" stroke-width="1" fill="none"></path></g><g transform="translate(990.0999984741211 145.5) rotate(0 124.9000015258789 12.5)"><text x="124.9000015258789" y="0" font-family="Virgil, Segoe UI Emoji" font-size="20px" fill="#000000" text-anchor="middle" style="white-space: pre;" direction="ltr" dominant-baseline="text-before-edge">parser_syntactic_spec.js</text></g><g stroke-linecap="round" transform="translate(226.2595034465853 15.511452216829298) rotate(0 60 24.5)"><path d="M12.25 0 C45.34 0, 78.43 0, 107.75 0 M12.25 0 C42.39 0, 72.53 0, 107.75 0 M107.75 0 C115.92 0, 120 4.08, 120 12.25 M107.75 0 C115.92 0, 120 4.08, 120 12.25 M120 12.25 C120 18.4, 120 24.55, 120 36.75 M120 12.25 C120 18.69, 120 25.13, 120 36.75 M120 36.75 C120 44.92, 115.92 49, 107.75 49 M120 36.75 C120 44.92, 115.92 49, 107.75 49 M107.75 49 C75.81 49, 43.86 49, 12.25 49 M107.75 49 C88.38 49, 69.02 49, 12.25 49 M12.25 49 C4.08 49, 0 44.92, 0 36.75 M12.25 49 C4.08 49, 0 44.92, 0 36.75 M0 36.75 C0 28.9, 0 21.05, 0 12.25 M0 36.75 C0 27.54, 0 18.32, 0 12.25 M0 12.25 C0 4.08, 4.08 0, 12.25 0 M0 12.25 C0 4.08, 4.08 0, 12.25 0" stroke="#000000" stroke-width="1" fill="none"></path></g><g transform="translate(256.5928374157015 27.511452216829298) rotate(0 29.66666603088379 12.5)"><text x="29.66666603088379" y="0" font-family="Virgil, Segoe UI Emoji" font-size="20px" fill="#000000" text-anchor="middle" style="white-space: pre;" direction="ltr" dominant-baseline="text-before-edge">data/</text></g><g stroke-linecap="round" transform="translate(108.25950344658531 132.5114522168293) rotate(0 91.5 22)"><path d="M11 0 C58.13 0, 105.27 0, 172 0 M11 0 C58.83 0, 106.65 0, 172 0 M172 0 C179.33 0, 183 3.67, 183 11 M172 0 C179.33 0, 183 3.67, 183 11 M183 11 C183 16.96, 183 22.92, 183 33 M183 11 C183 18.13, 183 25.25, 183 33 M183 33 C183 40.33, 179.33 44, 172 44 M183 33 C183 40.33, 179.33 44, 172 44 M172 44 C131.5 44, 91.01 44, 11 44 M172 44 C126.53 44, 81.06 44, 11 44 M11 44 C3.67 44, 0 40.33, 0 33 M11 44 C3.67 44, 0 40.33, 0 33 M0 33 C0 28.55, 0 24.1, 0 11 M0 33 C0 27.62, 0 22.25, 0 11 M0 11 C0 3.67, 3.67 0, 11 0 M0 11 C0 3.67, 3.67 0, 11 0" stroke="#000000" stroke-width="1" fill="none"></path></g><g transform="translate(128.39283474541344 142.0114522168293) rotate(0 71.36666870117188 12.5)"><text x="71.36666870117188" y="0" font-family="Virgil, Segoe UI Emoji" font-size="20px" fill="#000000" text-anchor="middle" style="white-space: pre;" direction="ltr" dominant-baseline="text-before-edge">SujetB_data/</text></g><g stroke-linecap="round"><g transform="translate(684 64) rotate(0 96 35)"><path d="M0 0 C19.75 5.33, 86.5 20.29, 118.5 31.96 C150.5 43.62, 179.75 63.66, 192 70 M0 0 C19.75 5.33, 86.5 20.29, 118.5 31.96 C150.5 43.62, 179.75 63.66, 192 70" stroke="#000000" stroke-width="1" fill="none"></path></g></g><mask></mask><g stroke-linecap="round"><g transform="translate(282.2595034465853 64.5114522168293) rotate(0 -46.15470266236548 33.80940532473096)"><path d="M0 0 C-9.75 5.83, -43.12 23.69, -58.5 34.96 C-73.89 46.23, -86.68 62.18, -92.31 67.62 M0 0 C-9.75 5.83, -43.12 23.69, -58.5 34.96 C-73.89 46.23, -86.68 62.18, -92.31 67.62" stroke="#000000" stroke-width="1" fill="none"></path></g></g><mask></mask><g stroke-linecap="round"><g transform="translate(1215.863258677186 59.42449421520939) rotate(0 -53.931629338592984 36.787752892395304)"><path d="M0 0 C-10.73 5.76, -46.39 22.27, -64.37 34.53 C-82.34 46.8, -100.61 67.07, -107.86 73.58 M0 0 C-10.73 5.76, -46.39 22.27, -64.37 34.53 C-82.34 46.8, -100.61 67.07, -107.86 73.58" stroke="#000000" stroke-width="1" fill="none"></path></g></g><mask></mask><g stroke-linecap="round"><g transform="translate(1218 59) rotate(0 58 38)"><path d="M0 0 C11.42 6.16, 49.16 24.29, 68.5 36.96 C87.83 49.62, 108.08 69.49, 116 76 M0 0 C11.42 6.16, 49.16 24.29, 68.5 36.96 C87.83 49.62, 108.08 69.49, 116 76" stroke="#000000" stroke-width="1" fill="none"></path></g></g><mask></mask><g stroke-linecap="round"><g transform="translate(1336 184) rotate(0 3.6438764461976234 31.71938223098823)"><path d="M0 0 C1.21 10.57, 6.07 52.87, 7.29 63.44 M0 0 C1.21 10.57, 6.07 52.87, 7.29 63.44" stroke="#000000" stroke-width="1" fill="none"></path></g></g><mask></mask><g stroke-linecap="round"><g transform="translate(651 64.42449421520945) rotate(0 27.5 34.287752892395275)"><path d="M0 0 C6.42 6.42, 29.33 27.1, 38.5 38.53 C47.66 49.96, 52.25 63.57, 55 68.58 M0 0 C6.42 6.42, 29.33 27.1, 38.5 38.53 C47.66 49.96, 52.25 63.57, 55 68.58" stroke="#000000" stroke-width="1" fill="none"></path></g></g><mask></mask><g stroke-linecap="round"><g transform="translate(611 64.42449421520939) rotate(0 -32.5 33.787752892395304)"><path d="M0 0 C-7.08 6.26, -31.67 26.27, -42.5 37.53 C-53.34 48.8, -61.25 62.57, -65 67.58 M0 0 C-7.08 6.26, -31.67 26.27, -42.5 37.53 C-53.34 48.8, -61.25 62.57, -65 67.58" stroke="#000000" stroke-width="1" fill="none"></path></g></g><mask></mask><g stroke-linecap="round"><g transform="translate(593 64) rotate(0 -101 34.5)"><path d="M0 0 C-20.42 4.49, -88.84 15.46, -122.5 26.96 C-156.17 38.46, -188.75 61.99, -202 69 M0 0 C-20.42 4.49, -88.84 15.46, -122.5 26.96 C-156.17 38.46, -188.75 61.99, -202 69" stroke="#000000" stroke-width="1" fill="none"></path></g></g><mask></mask><g stroke-linecap="round"><g transform="translate(349 182) rotate(0 -109 25.5)"><path d="M0 0 C-23.33 4.33, -103.67 17.5, -140 26 C-176.33 34.5, -205 46.83, -218 51 M0 0 C-23.33 4.33, -103.67 17.5, -140 26 C-176.33 34.5, -205 46.83, -218 51" stroke="#000000" stroke-width="1" fill="none"></path></g></g><mask></mask><g stroke-linecap="round"><g transform="translate(370 182) rotate(0 -39 25.5)"><path d="M0 0 C-7.49 4.17, -31.93 16.53, -44.93 25.03 C-57.93 33.53, -72.49 46.67, -78 51 M0 0 C-7.49 4.17, -31.93 16.53, -44.93 25.03 C-57.93 33.53, -72.49 46.67, -78 51" stroke="#000000" stroke-width="1" fill="none"></path></g></g><mask></mask><g stroke-linecap="round"><g transform="translate(402 183) rotate(0 29.5 25.5)"><path d="M0 0 C5.59 3.81, 23.71 14.36, 33.54 22.86 C43.38 31.36, 54.76 46.31, 59 51 M0 0 C5.59 3.81, 23.71 14.36, 33.54 22.86 C43.38 31.36, 54.76 46.31, 59 51" stroke="#000000" stroke-width="1" fill="none"></path></g></g><mask></mask><g stroke-linecap="round"><g transform="translate(442 182) rotate(0 122.43825250819918 26)"><path d="M0 0 C21.54 3.88, 88.43 14.63, 129.24 23.3 C170.05 31.97, 225.6 47.22, 244.88 52 M0 0 C21.54 3.88, 88.43 14.63, 129.24 23.3 C170.05 31.97, 225.6 47.22, 244.88 52" stroke="#000000" stroke-width="1" fill="none"></path></g></g><mask></mask><g stroke-linecap="round"><g transform="translate(379 182) rotate(0 -0.5 74.5)"><path d="M0 0 C-0.17 24.83, -0.83 124.17, -1 149 M0 0 C-0.17 24.83, -0.83 124.17, -1 149" stroke="#000000" stroke-width="1" fill="none"></path></g></g><mask></mask><g stroke-linecap="round"><g transform="translate(351.8632586771859 182.13674132281415) rotate(0 -70.93162933859296 73.43162933859293)"><path d="M0 0 C-23.64 8.64, -119.39 27.39, -141.86 51.86 C-164.34 76.34, -136.03 131.03, -134.86 146.86 M0 0 C-23.64 8.64, -119.39 27.39, -141.86 51.86 C-164.34 76.34, -136.03 131.03, -134.86 146.86" stroke="#000000" stroke-width="1" fill="none"></path></g></g><mask></mask><g stroke-linecap="round"><g transform="translate(337.13674132281403 177.98572975323293) rotate(0 -131.48724989825354 75.00713512338353)"><path d="M0 0 C-42.65 7.46, -212.05 19.73, -255.88 44.73 C-299.71 69.73, -261.79 132.47, -262.97 150.01 M0 0 C-42.65 7.46, -212.05 19.73, -255.88 44.73 C-299.71 69.73, -261.79 132.47, -262.97 150.01" stroke="#000000" stroke-width="1" fill="none"></path></g></g><mask></mask><g stroke-linecap="round"><g transform="translate(427.8765050163983 181.80873745900413) rotate(0 66.45183947525325 74.43825250819921)"><path d="M0 0 C18.82 6.61, 90.77 14.87, 112.92 39.69 C135.07 64.5, 129.57 130.68, 132.9 148.88 M0 0 C18.82 6.61, 90.77 14.87, 112.92 39.69 C135.07 64.5, 129.57 130.68, 132.9 148.88" stroke="#000000" stroke-width="1" fill="none"></path></g></g><mask></mask><g stroke-linecap="round" transform="translate(564.5060200655934 234.43825250819913) rotate(0 129 24.50000000000003)"><path d="M12.25 0 C81.52 0, 150.8 0, 245.75 0 M12.25 0 C92.62 0, 172.98 0, 245.75 0 M245.75 0 C253.92 0, 258 4.08, 258 12.25 M245.75 0 C253.92 0, 258 4.08, 258 12.25 M258 12.25 C258 19.51, 258 26.77, 258 36.75 M258 12.25 C258 18.17, 258 24.08, 258 36.75 M258 36.75 C258 44.92, 253.92 49, 245.75 49 M258 36.75 C258 44.92, 253.92 49, 245.75 49 M245.75 49 C174.74 49, 103.73 49, 12.25 49 M245.75 49 C187.21 49, 128.67 49, 12.25 49 M12.25 49 C4.08 49, 0 44.92, 0 36.75 M12.25 49 C4.08 49, 0 44.92, 0 36.75 M0 36.75 C0 31.16, 0 25.58, 0 12.25 M0 36.75 C0 30.55, 0 24.34, 0 12.25 M0 12.25 C0 4.08, 4.08 0, 12.25 0 M0 12.25 C0 4.08, 4.08 0, 12.25 0" stroke="#000000" stroke-width="1" fill="none"></path></g><g transform="translate(580.7726902926441 246.43825250819913) rotate(0 112.73332977294922 12.5)"><text x="112.73332977294922" y="0" font-family="Virgil, Segoe UI Emoji" font-size="20px" fill="#000000" text-anchor="middle" style="white-space: pre;" direction="ltr" dominant-baseline="text-before-edge">CompareTestProfiles.js</text></g></svg>